<svg width="149" height="20" viewBox="0 0 149 20" fill="none" xmlns="http://www.w3.org/2000/svg">
<path d="M0 14.5303V1.81601H2.86915V14.5303H0Z" fill="white"/>
<path d="M4.65137 14.5298V1.81552H13.8419C14.6772 1.81552 15.467 1.94593 16.2115 2.20591C16.9569 2.46632 17.6171 2.85714 18.1925 3.37881C18.7674 3.89962 19.2213 4.55937 19.5546 5.35807C19.8875 6.15719 20.0541 7.09525 20.0541 8.17267C20.0541 9.2501 19.8875 10.189 19.5546 10.989C19.2213 11.7881 18.7674 12.4479 18.1925 12.9682C17.6171 13.4891 16.9569 13.8795 16.2115 14.1394C15.467 14.3998 14.6772 14.5298 13.8419 14.5298H4.65137ZM7.52052 12.1141H12.6434C13.5989 12.1141 14.4164 12.0144 15.0949 11.8141C15.7734 11.6142 16.2908 11.2302 16.6479 10.6617C17.0047 10.0923 17.1832 9.26289 17.1832 8.17267C17.1832 7.07138 17.0047 6.23944 16.6479 5.67686C16.2908 5.11343 15.7734 4.73156 15.0949 4.53125C14.4164 4.33136 13.5989 4.2312 12.6434 4.2312H7.52052V12.1141Z" fill="white"/>
<path d="M21.6504 14.5303V1.81601H35.0909V4.12258H24.5195V7.0838H35.0909V9.26252H24.5195V12.2237H35.0909V14.5303H21.6504Z" fill="white"/>
<path d="M36.5088 14.5301L43.4285 1.81576H47.133L54.0527 14.5301H50.875L49.3305 11.7155H41.231L39.6865 14.5301H36.5088ZM42.3375 9.49924H48.2224L45.2799 4.15985L42.3375 9.49924Z" fill="white"/>
<path d="M64.2432 14.5298V1.81552H77.6837V4.1221H67.1123V7.08331H77.6837V9.26203H67.1123V12.2233H77.6837V14.5298H64.2432Z" fill="white"/>
<path d="M79.2832 14.5301V3.90418H82.062V5.88515C82.8496 5.2433 83.7941 4.72248 84.8954 4.32356C85.9975 3.92379 87.2147 3.72348 88.547 3.72348C89.2843 3.72348 89.9893 3.80275 90.6609 3.96044C91.3335 4.11728 91.9302 4.38323 92.451 4.75828C92.9714 5.13334 93.386 5.64477 93.6955 6.29259C94.0045 6.94041 94.1647 7.75488 94.1762 8.73556L94.1404 14.5301H91.3616V9.75331C91.3616 8.95462 91.2585 8.28293 91.053 7.73825C90.8472 7.19272 90.4896 6.78101 89.9807 6.50228C89.4727 6.22398 88.7584 6.08461 87.8378 6.08461C87.0749 6.08461 86.312 6.20309 85.5483 6.4392C84.7854 6.67447 84.0958 6.97707 83.4787 7.34615C82.8615 7.71567 82.3893 8.10649 82.062 8.51905V14.5301H79.2832Z" fill="white"/>
<path d="M103.601 19.0714C102.572 19.0714 101.616 19.0194 100.732 18.9163C99.8476 18.8127 99.0787 18.6913 98.4254 18.5515C97.7716 18.4125 97.2695 18.3013 96.9183 18.2173V16.0011C97.342 16.0736 97.8717 16.1703 98.5072 16.2909C99.1422 16.4124 99.8412 16.5215 100.604 16.6183C101.368 16.7146 102.143 16.7632 102.929 16.7632C104.092 16.7632 105.025 16.6085 105.727 16.2995C106.429 15.9913 106.943 15.528 107.27 14.9101C107.597 14.2929 107.779 13.5185 107.815 12.5864C107.258 13.2036 106.513 13.6788 105.58 14.0116C104.648 14.3449 103.523 14.5111 102.203 14.5111C100.956 14.5111 99.848 14.3266 98.8788 13.9571C97.9105 13.588 97.1506 13.0037 96.5995 12.2046C96.0493 11.4059 95.7744 10.3766 95.7744 9.11718C95.7744 7.84541 96.0493 6.81359 96.5995 6.02129C97.1506 5.22813 97.9105 4.6468 98.8788 4.27729C99.848 3.9082 100.956 3.72323 102.203 3.72323C103.523 3.72323 104.648 3.89286 105.58 4.23126C106.513 4.57009 107.258 5.04231 107.815 5.64794V3.90394H110.594V12.7313C110.594 14.1851 110.3 15.3776 109.713 16.3097C109.126 17.2414 108.306 17.9348 107.253 18.3895C106.199 18.8439 104.982 19.0714 103.601 19.0714ZM103.183 12.2046C104.733 12.2046 105.893 11.9599 106.661 11.4698C107.43 10.9788 107.815 10.1946 107.815 9.11718C107.815 8.03976 107.43 7.25641 106.661 6.76628C105.893 6.2753 104.733 6.02981 103.183 6.02981C101.634 6.02981 100.475 6.2753 99.7056 6.76628C98.9372 7.25641 98.5532 8.03976 98.5532 9.11718C98.5532 10.1946 98.9372 10.9788 99.7056 11.4698C100.475 11.9599 101.634 12.2046 103.183 12.2046Z" fill="white"/>
<path d="M112.374 2.6339V0H115.153V2.6339H112.374ZM112.374 14.5299V3.90397H115.153V14.5299H112.374Z" fill="white"/>
<path d="M116.933 14.5301V3.90418H119.711V5.88515C120.499 5.2433 121.443 4.72248 122.545 4.32356C123.647 3.92379 124.864 3.72348 126.196 3.72348C126.934 3.72348 127.639 3.80275 128.31 3.96044C128.983 4.11728 129.58 4.38323 130.1 4.75828C130.621 5.13334 131.035 5.64477 131.345 6.29259C131.654 6.94041 131.814 7.75488 131.826 8.73556L131.79 14.5301H129.011V9.75331C129.011 8.95462 128.908 8.28293 128.702 7.73825C128.497 7.19272 128.139 6.78101 127.63 6.50228C127.122 6.22398 126.408 6.08461 125.487 6.08461C124.724 6.08461 123.961 6.20309 123.198 6.4392C122.435 6.67447 121.745 6.97707 121.128 7.34615C120.511 7.71567 120.039 8.10649 119.711 8.51905V14.5301H116.933Z" fill="white"/>
<path d="M140.653 14.713C139.66 14.713 138.724 14.6099 137.845 14.4045C136.968 14.1978 136.199 13.8739 135.539 13.4327C134.879 12.9908 134.362 12.4214 133.987 11.7245C133.612 11.0281 133.425 10.1894 133.425 9.20827C133.425 7.91263 133.742 6.86248 134.378 6.05782C135.013 5.25231 135.887 4.6616 137.001 4.28654C138.116 3.91149 139.394 3.72396 140.834 3.72396C141.827 3.72396 142.762 3.82114 143.64 4.01548C144.518 4.20898 145.294 4.53544 145.965 4.99574C146.637 5.45518 147.166 6.08765 147.554 6.89317C147.941 7.69783 148.135 8.71218 148.135 9.93621H136.258C136.439 10.8807 136.926 11.5349 137.719 11.8984C138.512 12.2611 139.49 12.4423 140.653 12.4423C141.803 12.4423 142.753 12.3123 143.503 12.0519C144.254 11.7919 144.818 11.3648 145.193 10.7716H147.955C147.591 12.1039 146.761 13.0935 145.466 13.7413C144.17 14.3891 142.566 14.713 140.653 14.713ZM136.366 8.02856H145.176C144.921 7.21708 144.409 6.65748 143.64 6.34934C142.871 6.04035 141.936 5.88564 140.834 5.88564C139.623 5.88564 138.637 6.04035 137.874 6.34934C137.111 6.65748 136.608 7.21708 136.366 8.02856Z" fill="white"/>
</svg>
